<?xml version="1.0" encoding="utf-8"?>
<!-- Generator: Adobe Illustrator 19.2.1, SVG Export Plug-In . SVG Version: 6.00 Build 0)  -->
<svg version="1.1" xmlns="http://www.w3.org/2000/svg" xmlns:xlink="http://www.w3.org/1999/xlink" x="0px" y="0px"
	 viewBox="0 0 3196.1 1089.5" style="enable-background:new 0 0 3196.1 1089.5;" xml:space="preserve">
<style type="text/css">
	.st0{display:none;}
	.st1{display:inline;}
	.st2{fill:#217CA1;}
	.st3{font-family:'Philosopher-Regular';}
	.st4{font-size:1095.2756px;}
	.st5{font-size:304.4604px;}
</style>
<g id="Logotype" class="st0">
	<g transform="matrix(23.25581395348837, 0, 0, 23.25581395348837, 0, 0)" class="st1">
		<g transform="matrix(1.5398464933023566, 0, 0, 1.5398464933023566, -44.78547601094163, -47.19355405787416)">
			<g transform="matrix(1.274392451306707, 0, 0, 1.274392451306707, 64.51541543508831, 61.36883060112595)">
				<text transform="matrix(2.191229e-002 0 0 2.191229e-002 1.0007 16.7008)" class="st2 st3 st4">WET</text>
			</g>
			<g transform="matrix(0.5771053280462238, 0, 0, 0.5313759138040683, 44.833004209399235, 85.35474630962399)">
				<text transform="matrix(5.255201e-002 0 0 5.255196e-002 1.0005 11.7996)" class="st2 st3 st5">WATER ECO TECH</text>
			</g>
			<g transform="matrix(0.09375121806042423, 0, 0, 0.09375121806042423, 37.659358535881324, 59.46701700162228)">
				<g>
					<path id="rnd1" class="st2" d="M76.3,27.2v8.7C73.9,57.5,70,73.7,59.1,93.1c-19.9,35.4-56.3,71-39.7,115
						c9.1,24.2,32.7,38.7,56.8,39.4V36l0-0.3c0.1-0.9-0.2-1.5,0.8-1.5c3.4,19.5,7.4,38,15.9,56.2c9.1,19.6,23.4,37.1,34.6,55.6
						c16.5,27.3,15.2,63.8-8.5,85.7c-0.8,0.7-1.5,1.4-2.4,2.1c-0.8,0.7-1.7,1.4-2.6,2c-0.9,0.7-1.8,1.3-2.7,1.9
						c-0.3,0.2-0.5,0.3-0.8,0.5c-0.7,0.5-1.5,0.9-2.2,1.4c-0.2,0.1-0.4,0.3-0.6,0.4c-0.9,0.5-1.8,1-2.8,1.5
						c-0.3,0.1-0.6,0.3-0.9,0.4c-0.7,0.3-1.4,0.6-2.1,0.9c-0.3,0.1-0.7,0.3-1,0.4c-0.9,0.4-1.8,0.7-2.8,1.1
						c-0.3,0.1-0.6,0.2-0.9,0.3c-0.7,0.2-1.4,0.5-2.1,0.7c-0.4,0.1-0.8,0.2-1.2,0.3c-0.7,0.2-1.3,0.3-2,0.5
						c-0.4,0.1-0.7,0.2-1.1,0.3c-0.9,0.2-1.8,0.4-2.7,0.5c-0.4,0.1-0.9,0.1-1.3,0.2c-0.6,0.1-1.2,0.2-1.9,0.2
						c-0.4,0-0.8,0.1-1.2,0.1c-0.9,0.1-1.9,0.2-2.8,0.2c-0.3,0-0.7,0-1,0c-0.7,0-1.5,0-2.2,0c-0.3,0-0.7,0-1,0c-0.2,0-0.4,0-0.6,0v7
						h195.8V27.2H76.3z M59.1,110.5c-6.1,15.8-14.4,30.8-20.3,46.5c-8.4,22.6-3.6,38,8.3,57.8L33.3,215
						c-26.7-38.6,9.2-77,27.5-110.2L59.1,110.5z"/>
				</g>
			</g>
		</g>
	</g>
</g>
<g id="Logotype__x28_копия_x29_">
	<g transform="matrix(23.25581395348837, 0, 0, 23.25581395348837, 0, 0)">
		<g transform="matrix(1.5398464933023566, 0, 0, 1.5398464933023566, -44.78547601094163, -47.19355405787416)">
			<g transform="matrix(1.274392451306707, 0, 0, 1.274392451306707, 64.51541543508831, 61.36883060112595)">
				<text transform="matrix(2.191229e-002 0 0 2.191229e-002 -6.8462 -7.9162)" class="st2 st3 st4">WET</text>
			</g>
			<g transform="matrix(0.5771053280462238, 0, 0, 0.5313759138040683, 44.833004209399235, 85.35474630962399)">
				<text transform="matrix(5.255201e-002 0 0 5.255196e-002 -16.3274 -47.2389)" class="st2 st3 st5">WATER ECO TECH</text>
			</g>
			<g transform="matrix(0.09375121806042423, 0, 0, 0.09375121806042423, 37.659358535881324, 59.46701700162228)">
				<g>
					<path id="rnd1_1_" class="st2" d="M-30.4-307.4v8.7c-2.3,21.6-6.2,37.8-17.1,57.2c-19.9,35.4-56.3,71-39.7,115
						c9.1,24.2,32.7,38.7,56.8,39.4v-211.5l0-0.3c0.1-0.9-0.2-1.5,0.8-1.5c3.4,19.5,7.4,38,15.9,56.2c9.1,19.6,23.4,37.1,34.6,55.6
						c16.5,27.3,15.2,63.8-8.5,85.7c-0.8,0.7-1.5,1.4-2.4,2.1c-0.8,0.7-1.7,1.4-2.6,2c-0.9,0.7-1.8,1.3-2.7,1.9
						c-0.3,0.2-0.5,0.3-0.8,0.5c-0.7,0.5-1.5,0.9-2.2,1.4C1.5-95,1.3-94.9,1-94.8c-0.9,0.5-1.8,1-2.8,1.5C-2-93.2-2.3-93-2.6-92.9
						C-3.3-92.6-4-92.3-4.7-92c-0.3,0.1-0.7,0.3-1,0.4c-0.9,0.4-1.8,0.7-2.8,1.1c-0.3,0.1-0.6,0.2-0.8,0.3c-0.7,0.2-1.4,0.5-2.1,0.7
						c-0.4,0.1-0.8,0.2-1.2,0.3c-0.7,0.2-1.3,0.3-2,0.5c-0.4,0.1-0.7,0.2-1.1,0.3c-0.9,0.2-1.8,0.4-2.7,0.5
						c-0.4,0.1-0.9,0.1-1.3,0.2c-0.6,0.1-1.2,0.2-1.9,0.2c-0.4,0-0.8,0.1-1.2,0.1c-0.9,0.1-1.9,0.2-2.8,0.2c-0.3,0-0.7,0-1,0
						c-0.7,0-1.5,0-2.2,0c-0.3,0-0.7,0-1,0c-0.2,0-0.4,0-0.6,0v7h195.8v-227.2H-30.4z M-47.5-224.1c-6.1,15.8-14.4,30.8-20.3,46.5
						c-8.4,22.6-3.6,38,8.3,57.8l-13.9,0.2c-26.7-38.6,9.2-77,27.5-110.2L-47.5-224.1z"/>
				</g>
			</g>
		</g>
	</g>
</g>
<g id="Слой_3">
</g>
</svg>
